<?xml version="1.0" encoding="utf-8" ?>
<svg baseProfile="full" height="200mm" version="1.1" viewBox="0,0,200,200" width="200mm" xmlns="http://www.w3.org/2000/svg" xmlns:ev="http://www.w3.org/2001/xml-events" xmlns:xlink="http://www.w3.org/1999/xlink"><defs /><rect fill="#1a1a1a" height="200" width="200" x="0" y="0" /><text alignment-baseline="middle" fill="#e1ed5e" style="dominant-baseline: central; font-size:9.0px; font-family:Arial;" text-anchor="middle" x="100.0" y="100.0">2019</text><line stroke="#e1ed5e" stroke-width="0.3" x1="100.0" x2="100.0" y1="15.0" y2="10.0" /><path d="M 100.0 14.0 a86.0,86.0 0 0,1 42.46469731375804,11.215312516191453" fill="none" id="id13" stroke="none" /><text fill="#e1ed5e" style="font-size:6.75px; font-family:Arial;" text-anchor="middle"><textPath startOffset="22.20632615414155" xlink:href="#id13">January</textPath></text><path d="M 100.72285384407766 79.0124445844662 l 1.4553588100766897 -42.2553244009425 a63.280379722691166,63.280379722691166 0 0,0 1.0882994888921032,0.04686446529048063 l -2.1824991313581243 42.22401220912782" fill="#ff8f0d" stroke="none" /><path d="M 101.80526077348638 79.07773832637324 l 3.7053984447952297 -42.94410924208813 a64.1036714936337,64.1036714936337 0 0,0 1.0985381253247697,0.10431943180346781 l -4.444061697210244 42.87396426576949" fill="#ffaa0f" stroke="none" /><path d="M 102.16513564639614 79.11191278185805 l 4.422671541946754 -42.66760332506027 a63.89620492622442,63.89620492622442 0 0,0 1.0930306823269396,0.1228147327949594 l -5.156468927783419 42.58515263879471" fill="#ffa30f" stroke="none" /><path d="M 102.52436894288641 79.15227682838746 l 5.122858611711828 -42.30757888431422 a63.6166037056927,63.6166037056927 0 0,0 1.085981688135429,0.14099159100312061 l -5.850355028355103 42.21312897014696" fill="#ff9a0e" stroke="none" /><path d="M 103.2404852339499 79.25152402106235 l 6.6677295025904835 -42.69274982929647 a64.21029396690804,64.21029396690804 0 0,0 1.0905684058682517,0.17995313131894336 l -7.40162711459761 42.5716504350379" fill="#ffae10" stroke="none" /><path d="M 104.66035177308747 79.52364482259891 l 9.422240178370117 -41.39883550706037 a63.4575339759569,63.4575339759569 0 0,0 1.0629932065005958,0.25157614804562517 l -10.133457071833236 41.23051344687388" fill="#ff950d" stroke="none" /><path d="M 105.36241919743992 79.69619591428918 l 15.489540543376378 -58.64826769241254 a81.65925460773303,81.65925460773303 0 0,0 1.3559406879111868,0.3706298109623551 l -16.496779120511277 58.372951340623885" fill="#46fff5" stroke="none" /><path d="M 106.0581310904928 79.89281104454417 l 17.304184641006014 -57.433308243005015 a80.98349524515936,80.98349524515936 0 0,0 1.3312708156019528,0.4136323227018014 l -18.290240829318684 57.12693578542069" fill="#44ffe4" stroke="none" /><path d="M 106.74666289553966 80.11325718540242 l 19.86736300495204 -58.56186156046687 a82.84014668641905,82.84014668641905 0 0,0 1.3464206119101425,0.4697397138337126 l -20.872465620925453 58.211200993460956" fill="#49edff" stroke="none" /><path d="M 107.08798089147638 80.2323363322302 l 19.899283930062197 -55.49709543263045 a79.95684101431931,79.95684101431931 0 0,0 1.2915606498785364,0.4756926872789659 l -20.85162690571331 55.14633947754516" fill="#40ffca" stroke="none" /><path d="M 107.76421540070413 80.48803036053334 l 22.70446825317492 -57.05778013268504 a82.40914551049588,82.40914551049588 0 0,0 1.3135081093238423,0.5358129380176939 l -23.68326023208715 56.658506308483766" fill="#48f7ff" stroke="none" /><path d="M 108.09893153111575 80.62456947434976 l 23.696343935420508 -56.689807028088545 a82.44307069790423,82.44307069790423 0 0,0 1.3046272119311861,0.5585732864330868 l -24.66865490514201 56.273514213692664" fill="#48f6ff" stroke="none" /><path d="M 108.76106565485865 80.91482961587045 l 25.21587760076569 -54.930454736300405 a81.4416689107237,81.4416689107237 0 0,0 1.2690232655101397,0.5958234389012462 l -26.157679077575427 54.48826631475916" fill="#45fff0" stroke="none" /><path d="M 109.08828744355905 81.06846463323043 l 26.229709725762106 -54.63831116887564 a81.60810770585582,81.60810770585582 0 0,0 1.261151228355124,0.6188414306342093 l -27.16633222112766 54.17871457810659" fill="#46fff4" stroke="none" /><path d="M 109.73455568895987 81.39251694778311 l 29.203667066879603 -55.82244915665069 a84.0,84.0 0 0,0 1.2754198138867554,0.6812850939929835 l -30.16023192729467 55.311485336155954" fill="#4dd2ff" stroke="none" /><path d="M 110.05341064243156 81.56283822128135 l 28.88216549591761 -52.96761235639382 a81.33031942954369,81.33031942954369 0 0,0 1.2233470826604513,0.6807913270107577 l -29.7896366676501 52.46260563182288" fill="#45ffed" stroke="none" /><line stroke="#e1ed5e" stroke-width="0.3" x1="143.23703022742887" x2="145.7803849466894" y1="26.81831364943548" y2="22.513508569990506" /><path d="M 143.74570117128098 25.957352633546492 a86.0,86.0 0 0,1 28.547481713284135,27.462654790039103" fill="none" id="id14" stroke="none" /><text fill="#e1ed5e" style="font-size:6.75px; font-family:Arial;" text-anchor="middle"><textPath startOffset="19.985693538727396" xlink:href="#id14">February</textPath></text><path d="M 110.68208982089419 81.91981866633111 l 30.364833487810767 -51.39459645362945 a80.69445248407841,80.69445248407841 0 0,0 1.1898125492794793,0.7168487480374071 l -31.24500810330788 50.86430109613343" fill="#43ffdd" stroke="none" /><path d="M 110.99172775467656 82.1063720568725 l 32.071302237232935 -52.209439925445594 a82.27311028926681,82.27311028926681 0 0,0 1.2003288222569446,0.751645798378921 l -32.96525021186214 51.649649785743726" fill="#48faff" stroke="none" /><path d="M 113.34407831869373 83.78471172551755 l 28.212125707329054 -34.282454003541844 a65.3983185428356,65.3983185428356 0 0,0 0.8630786228425564,0.7228035258182125 l -28.798061867130727 33.791749320329814" fill="#ffd313" stroke="none" /><path d="M 113.6212207817346 84.01681056812373 l 38.927046550438014 -45.67713636015849 a81.01429612354444,81.01429612354444 0 0,0 1.0535955556955905,0.9136676835962071 l -39.70753590478037 45.00030368314262" fill="#44ffe5" stroke="none" /><path d="M 114.16331599549186 84.49514656593476 l 41.470577433053776 -45.39863582301036 a82.48857558295873,82.48857558295873 0 0,0 1.0401106900647796,0.9666695310572158 l -42.245896006913405 44.678061705878505" fill="#48f5ff" stroke="none" /><path d="M 114.42810811169701 84.74124197986012 l 40.96445714855216 -43.32284830534358 a80.62345121479783,80.62345121479783 0 0,0 1.000179047583408,0.9621714513344176 l -41.704119439747984 42.611293767246856" fill="#43ffdb" stroke="none" /><path d="M 114.94478906791727 85.2469230424477 l 42.52971413581828 -41.9841419492091 a80.7615659072431,80.7615659072431 0 0,0 0.9681224884833203,0.9977353247513369 l -43.24610088800471 41.24584242890765" fill="#43ffdf" stroke="none" /><path d="M 116.15771136456269 86.58626213691792 l 44.96887335863455 -37.33206180138894 a79.4455508100286,79.4455508100286 0 0,0 0.8644489599005626,1.0597122112425228 l -45.60482081061152 36.55246542053832" fill="#3fffbd" stroke="none" /><path d="M 116.38621287248628 86.86637796730983 l 46.404095504781196 -37.1930876201403 a80.46987343467521,80.46987343467521 0 0,0 0.8569885156564422,1.088288386337338 l -47.0374381010316 36.38880683984992" fill="#42ffd7" stroke="none" /><path d="M 117.04232023915458 87.72973835380427 l 50.062119466422466 -36.0441122919883 a82.68787430595917,82.68787430595917 0 0,0 0.821710279185545,1.1622509161435604 l -50.675142365411894 35.177034875512945" fill="#49f0ff" stroke="none" /><path d="M 117.2510076193507 88.02491185347247 l 49.04421137695711 -34.04489565335287 a80.70250907319837,80.70250907319837 0 0,0 0.7823360193547739,1.1479815732087513 l -49.622971861980616 33.19563605687371" fill="#43ffdd" stroke="none" /><path d="M 117.65298651832404 88.62581576622439 l 50.7718662111795 -32.713363236250224 a81.39823286150646,81.39823286150646 0 0,0 0.7487567763423164,1.1843534058447667 l -51.32745058376777 31.834562182691254" fill="#45ffef" stroke="none" /><line stroke="#e1ed5e" stroke-width="0.3" x1="172.23445277983987" x2="176.4835382374775" y1="55.19839476539836" y2="52.563006222186495" /><path d="M 173.08426987136738 54.67131705675599 a86.0,86.0 0 0,1 12.851231095245387,41.99856678651699" fill="none" id="id15" stroke="none" /><text fill="#e1ed5e" style="font-size:6.75px; font-family:Arial;" text-anchor="middle"><textPath startOffset="22.20632615414155" xlink:href="#id15">March</textPath></text><path d="M 117.84615892207809 88.93136811851018 l 51.0552842534736 -31.665757851534295 a81.07796826220903,81.07796826220903 0 0,0 0.7253937782628579,1.192356642012552 l -51.59279383002268 30.782233436314662" fill="#44ffe7" stroke="none" /><path d="M 118.21658344932153 89.55222093294921 l 52.15957926965966 -29.9151463805373 a81.12934136140927,81.12934136140927 0 0,0 0.6843544232929245,1.2173901567194876 l -52.66679133424502 29.01287271388302" fill="#44ffe8" stroke="none" /><path d="M 118.3937258080291 89.86733742301442 l 51.488756594568265 -28.36392161796633 a79.78438657675042,79.78438657675042 0 0,0 0.6523015706690991,1.20861574301042 l -51.96936626445583 27.473424891623452" fill="#40ffc6" stroke="none" /><path d="M 119.47837535516314 92.15188598940014 l 39.17190640575625 -15.782917305956548 a63.23196337074551,63.23196337074551 0 0,0 0.39807968625031487,1.0130693808800304 l -39.43777964188827 15.106298920180734" fill="#ff8d0d" stroke="none" /><path d="M 119.61058180528143 92.48833698450437 l 40.11842671699018 -15.36701486993758 a63.96083458522884,63.96083458522884 0 0,0 0.38496933367521324,1.0315264195386205 l -40.37700063916702 14.674165313369627" fill="#ffa50f" stroke="none" /><path d="M 119.85752413597 93.16781622104841 l 56.73080380522988 -19.518811855446007 a80.99473407421509,80.99473407421509 0 0,0 0.4422416856754919,1.322246350585499 l -57.05838278467714 18.53939240193819" fill="#44ffe5" stroke="none" /><path d="M 120.08093135843002 93.85539295169968 l 56.515462784452936 -17.293287087380087 a80.10207536142391,80.10207536142391 0 0,0 0.39209623696516127,1.321953589565922 l -56.8047649185298 16.317904111067634" fill="#41ffce" stroke="none" /><path d="M 120.18372546131832 94.20196356495316 l 41.53308874817411 -11.930917425698029 a64.21277879959274,64.21277879959274 0 0,0 0.29603078507125463,1.064980239617015 l -41.732306303811725 11.214225882662062" fill="#ffae10" stroke="none" /><path d="M 120.45610955862082 95.25157060432595 l 42.57405113410745 -9.882616013509262 a64.7060170827778,64.7060170827778 0 0,0 0.24251079710269785,1.0871283518227128 l -42.73785631821218 9.148309492136585" fill="#ffbe11" stroke="none" /><path d="M 120.53481517161879 95.60439243477599 l 38.41313539524749 -8.222575520460051 a60.283326222244526,60.283326222244526 0 0,0 0.20846750451644416,1.016561587749492 l -38.54898219567893 7.560138276547147" fill="#ff2803" stroke="none" /><path d="M 120.83666639777658 97.38593545837742 l 39.270158677266366 -4.92663880979964 a60.57798797942996,60.57798797942996 0 0,0 0.12089533771289257,1.03575742398553 l -39.349144367982845 4.249937647489257" fill="#ff3204" stroke="none" /><path d="M 120.91429891909075 98.10471618934814 l 39.678551725509216 -3.595727354112982 a60.84114358598441,60.84114358598441 0 0,0 0.08554124616135363,1.0438198711997146 l -39.734567455490065 2.9121935657054987" fill="#ff3c05" stroke="none" /><path d="M 120.94382443527127 98.46500227214037 l 40.89204346889871 -2.9970263552528627 a62.00172418370211,62.00172418370211 0 0,0 0.06884969355577006,1.0650742857120912 l -40.9375737534589 2.2926930052877363" fill="#ff6409" stroke="none" /><path d="M 120.96714384426684 98.82574320788733 l 40.02017009645815 -2.2413141678388437 a61.0828829271099,61.0828829271099 0 0,0 0.049757510741838644,1.0503024095441416 l -40.05282121543348 1.5521006516717024" fill="#ff4406" stroke="none" /><path d="M 120.98425023603335 99.18683210126433 l 44.70550302516036 -1.7323983248382442 a65.73905681491871,65.73905681491871 0 0,0 0.034085092228502076,1.131118271778771 l -44.72869981184451 0.9626099056344742" fill="#ffde14" stroke="none" /><line stroke="#e1ed5e" stroke-width="0.3" x1="184.98032266829074" x2="189.97916517819016" y1="98.17113171792111" y2="98.06355123074" /><path d="M 185.9800911702706 98.14961562048488 a86.0,86.0 0 0,1 -9.607161424134198,41.387399972396054" fill="none" id="id16" stroke="none" /><text fill="#e1ed5e" style="font-size:6.75px; font-family:Arial;" text-anchor="middle"><textPath startOffset="21.466115282336823" xlink:href="#id16">April</textPath></text><path d="M 120.99824983174949 100.27111621757518 l 40.56215860956686 0.5237131240472658 a61.56553939619142,61.56553939619142 0 0,0 -0.022802519342251467,1.0595434730551658 l -40.5471340275396 -1.2218464128925464" fill="#ff5507" stroke="none" /><path d="M 120.95626037817324 101.35467743843564 l 39.7337657775872 2.568513421366242 a60.8166975534624,60.8166975534624 0 0,0 -0.07652316381107771,1.044097772265445 l -39.683666055111786 -3.2520843301284574" fill="#ff3b05" stroke="none" /><path d="M 120.92983693683757 101.71520430193887 l 40.544720290494986 3.3226478960649204 a61.68063829975755,61.68063829975755 0 0,0 -0.09582646316272758,1.057437035910313 l -40.48151923105519 -4.020066320523804" fill="#ff5908" stroke="none" /><path d="M 120.81339534386255 102.79330883721812 l 40.02670893781828 5.371875081099379 a61.385572551095,61.385572551095 0 0,0 -0.14956433683171638,1.04605262345164 l -39.928310549969964 -6.060073176531428" fill="#ff4f07" stroke="none" /><path d="M 120.76222939487914 103.15116336523771 l 37.881943688485464 5.749488211732953 a59.3157705431385,59.3157705431385 0 0,0 -0.16189885267814594,1.0081443101713379 l -37.77736308144603 -6.400711751597496" fill="#ff0500" stroke="none" /><path d="M 120.64145759157962 103.86396538481128 l 38.965312058251605 7.294088430212058 a60.642140076245646,60.642140076245646 0 0,0 -0.20089894045731307,1.0243793692033805 l -38.83398318481863 -7.963731526483383" fill="#ff3505" stroke="none" /><path d="M 120.32669344350535 105.2749913415812 l 46.31041536246779 12.018041239270024 a68.84441332353327,68.84441332353327 0 0,0 -0.3075441355715447,1.1444861376883597 l -46.096683150554476 -12.813418310133933" fill="#c3ff1e" stroke="none" /><path d="M 120.23288151984713 105.62410040840565 l 43.69383860844871 12.14550361111609 a66.35046626341119,66.35046626341119 0 0,0 -0.31534595614899485,1.097760642857507 l -43.47830001541361 -12.895821729478179" fill="#fff116" stroke="none" /><path d="M 119.9155931802556 106.66101706037122 l 40.005424131860956 13.380310103637719 a63.183725042243395,63.183725042243395 0 0,0 -0.3538564476252203,1.0284724733304258 l -39.76917685329251 -14.066955280057444" fill="#ff8c0c" stroke="none" /><path d="M 119.79798401119884 107.00284435728193 l 38.36186151450207 13.569166703524083 a61.69096587555844,61.69096587555844 0 0,0 -0.36273036194218655,0.9980781695733605 l -38.12260689155465 -14.227492670103574" fill="#ff5908" stroke="none" /><path d="M 119.54520255179757 107.68017299344265 l 40.074088110202624 15.74687846929032 a64.05690094968381,64.05690094968381 0 0,0 -0.412091421765497,1.0227771134504409 l -39.79709407417973 -16.43435495058357" fill="#ffa90f" stroke="none" /><path d="M 119.41010516605496 108.01547362559984 l 41.64139539195072 17.195965897241667 a66.0522702350045,66.0522702350045 0 0,0 -0.44301892631527817,1.0471658761340774 l -41.339225484443126 -17.91020629904191" fill="#ffe815" stroke="none" /><path d="M 119.12269723197855 108.67885076344098 l 40.70108724714381 18.47221957460256 a65.69677168556967,65.69677168556967 0 0,0 -0.47622458296295056,1.02574538477441 l -40.37708804734103 -19.170085026655798" fill="#ffdd14" stroke="none" /><path d="M 118.81262510543309 109.33194174019688 l 40.29200465016178 19.986718381076003 a65.97682236856112,65.97682236856112 0 0,0 -0.5134295273688236,1.0130451665705715 l -39.94199645300669 -20.67731775934927" fill="#ffe615" stroke="none" /><path d="M 118.64920377521936 109.65438752849418 l 33.902517242493495 17.5507782313692 a59.176046048592724,59.176046048592724 0 0,0 -0.47607831205133183,0.9005607516048441 l -33.595386422217274 -18.13175399806018" fill="#ff0000" stroke="none" /><line stroke="#e1ed5e" stroke-width="0.3" x1="174.80103733775053" x2="179.2010983576182" y1="140.37084112569926" y2="142.7455964860345" /><path d="M 175.68104954172406 140.8457921977663 a86.0,86.0 0 0,1 -30.038265399797805,32.042727171017184" fill="none" id="id17" stroke="none" /><text fill="#e1ed5e" style="font-size:6.75px; font-family:Arial;" text-anchor="middle"><textPath startOffset="22.206326154141568" xlink:href="#id17">May</textPath></text><path d="M 118.30583269289576 110.29060199501025 l 40.92490392409513 23.005885885231283 a67.94804092356465,67.94804092356465 0 0,0 -0.5819199774028346,1.0146265307827103 l -40.52283195053992 -23.706932261872307" fill="#ddff1b" stroke="none" /><path d="M 116.498646956653 112.99209946851258 l 32.00060405335506 25.199341012992846 a61.731381602748364,61.731381602748364 0 0,0 -0.6645885544994251,0.8291764068997607 l -31.562097586800785 -25.74644525347086" fill="#ff5b08" stroke="none" /><path d="M 116.27256486870786 113.27417163493432 l 34.168769977935256 27.872810518881607 a65.09533317740696,65.09533317740696 0 0,0 -0.7157510866155146,0.8621682922725828 l -33.6839228914262 -28.45684006826796" fill="#ffca12" stroke="none" /><path d="M 115.80600337817218 113.82643327865902 l 33.16340254027359 29.00996295810162 a65.06119856380047,65.06119856380047 0 0,0 -0.7446134907657945,0.836581150468789 l -32.659130199859455 -29.576518278311276" fill="#ffc912" stroke="none" /><path d="M 115.56566222782051 114.09645910891815 l 33.49264712543639 30.33136166923276 a66.18571579801304,66.18571579801304 0 0,0 -0.772020420195123,0.8378756902370113 l -32.965580297245545 -30.903388614271105" fill="#ffec16" stroke="none" /><path d="M 115.07121518719521 114.62390073753431 l 31.43666262055776 30.50362084093822 a64.80336335404502,64.80336335404502 0 0,0 -0.7836867453186802,0.7938705354691962 l -30.906935250183547 -31.040231870388077" fill="#ffc111" stroke="none" /><path d="M 114.55890576462653 115.13401014063108 l 30.767309090385695 31.982676122896958 a65.37926183078594,65.37926183078594 0 0,0 -0.8177518693775384,0.7732354339946029 l -30.212221386617347 -32.50754619363748" fill="#ffd313" stroke="none" /><path d="M 114.29624159901734 115.38237550388516 l 30.519004573062002 32.83763673802885 a65.82990103345446,65.82990103345446 0 0,0 -0.836668106875274,0.7642764784212178 l -29.949236916719865 -33.35810598303665" fill="#ffe115" stroke="none" /><path d="M 113.48314897796784 116.09983520530334 l 28.386895199317106 33.89596417320785 a65.21257972894595,65.21257972894595 0 0,0 -0.8667989998576079,0.713316565507348 l -27.799226070914806 -34.37957585757238" fill="#ffce13" stroke="none" /><path d="M 113.20401910651253 116.32954008644616 l 26.281325751124484 32.50237362700152 a62.79847335281425,62.79847335281425 0 0,0 -0.8464113024430077,0.6724403290143206 l -25.717956955964123 -32.949947870020964" fill="#ff7f0b" stroke="none" /><path d="M 111.45004920935366 117.60387380957326 l 24.528918876649378 37.71197701377998 a65.98734345952332,65.98734345952332 0 0,0 -0.9575021136522007,0.6111231515773758 l -23.876134960950246 -38.12861459418116" fill="#ffe615" stroke="none" /><line stroke="#e1ed5e" stroke-width="0.3" x1="143.8653032363475" x2="146.44561519142675" y1="172.8068346515853" y2="177.08958963109032" /><path d="M 144.38136562736335 173.6633856474863 a86.0,86.0 0 0,1 -40.68145358897372,12.25698825130547" fill="none" id="id18" stroke="none" /><text fill="#e1ed5e" style="font-size:6.75px; font-family:Arial;" text-anchor="middle"><textPath startOffset="21.466115282336833" xlink:href="#id18">June</textPath></text><path d="M 110.5260780823613 118.17145234162733 l 22.49864317748527 38.840014205864584 a65.88580675825675,65.88580675825675 0 0,0 -0.9862516474690287,0.5600194250197954 l -21.826742763095044 -39.221536796679004" fill="#ffe315" stroke="none" /><path d="M 109.57404056367764 118.69057910512821 l 21.02354054832758 41.04245695168102 a67.11369134885824,67.11369134885824 0 0,0 -1.0327393857318505,0.517836967323914 l -20.31394725491297 -41.398261759914234" fill="#f6ff19" stroke="none" /><path d="M 109.2508944713604 118.85261126421891 l 19.878912625432914 40.511694652111636 a66.12614065877479,66.12614065877479 0 0,0 -1.0261748359394975,0.4926262817930419 l -19.178625121493184 -40.84787521040424" fill="#ffea16" stroke="none" /><path d="M 108.59647513512805 119.15986991738527 l 18.046534665017063 40.22221331489498 a65.08518863932169,65.08518863932169 0 0,0 -1.0261123973561643,0.4498175203372688 l -17.351501593003146 -40.526895388526704" fill="#ffca12" stroke="none" /><path d="M 107.93186726928326 119.44442032107085 l 17.064182183870667 41.83165445839491 a66.17824286457896,66.17824286457896 0 0,0 -1.0584703334664203,0.4211871900244063 l -16.34159077436238 -42.11918849282539" fill="#ffec16" stroke="none" /><path d="M 106.57524785965236 119.94407469862006 l 16.19395618098774 49.11958889362313 a72.72019170372724,72.72019170372724 0 0,0 -1.1921909421184842,0.38170189151725126 l -15.346043893778315 -49.39106363180009" fill="#5aff2a" stroke="none" /><path d="M 106.2309692047433 120.05430185196036 l 13.967820781842786 44.95526858966396 a68.0752184420052,68.0752184420052 0 0,0 -1.1220255582488046,0.3380570965843626 l -13.191920249153736 -45.189041055354046" fill="#d9ff1c" stroke="none" /><path d="M 105.18746579009965 120.34920634021253 l 12.113585549540888 47.51874264653007 a70.03845284644696,70.03845284644696 0 0,0 -1.1707985149244142,0.28775378958207576 l -11.293833749873261 -47.720217694426175" fill="#a1ff22" stroke="none" /><path d="M 104.48393922423573 120.51570834832081 l 9.61055288839394 43.97189396740959 a66.00988986769163,66.00988986769163 0 0,0 -1.1121363173950325,0.23305897840900103 l -8.85222510956953 -44.130808926545136" fill="#ffe715" stroke="none" /><line stroke="#e1ed5e" stroke-width="0.3" x1="102.19456741930631" x2="102.32365962044197" y1="184.97166512339345" y2="189.96999836594603" /><path d="M 102.22038585953345 185.97133177190398 a86.0,86.0 0 0,1 -42.740103519485714,-10.115201625700543" fill="none" id="id19" stroke="none" /><text fill="#e1ed5e" style="font-size:6.75px; font-family:Arial;" text-anchor="middle"><textPath startOffset="22.20632615414155" xlink:href="#id19">July</textPath></text><path d="M 95.16358092515715 120.4354850818985 l -9.587398707451284 40.50995999901018 a62.62901720071041,62.62901720071041 0 0,0 -1.0469386080033503,-0.25731203795744134 l 10.283290600197844 -40.3389267027387" fill="#ff790b" stroke="none" /><line stroke="#e1ed5e" stroke-width="0.3" x1="58.666819895761336" x2="56.23545636021788" y1="174.27360380694188" y2="178.64263932499728" /><path d="M 58.180547188652646 175.14741091055294 a86.0,86.0 0 0,1 -31.652253787137756,-30.449443065178592" fill="none" id="id20" stroke="none" /><text fill="#e1ed5e" style="font-size:6.75px; font-family:Arial;" text-anchor="middle"><textPath startOffset="22.20632615414155" xlink:href="#id20">August</textPath></text><line stroke="#e1ed5e" stroke-width="0.3" x1="26.63291911575756" x2="22.317208475507996" y1="142.92168965132927" y2="145.44649492493687" /><path d="M 25.769776987707644 143.4266507060508 a86.0,86.0 0 0,1 -11.730757126820373,-40.83630448921669" fill="none" id="id21" stroke="none" /><text fill="#e1ed5e" style="font-size:6.75px; font-family:Arial;" text-anchor="middle"><textPath startOffset="21.46611528233685" xlink:href="#id21">September</textPath></text><line stroke="#e1ed5e" stroke-width="0.3" x1="15.007084014347285" x2="10.007500721073583" y1="101.09737516637583" y2="101.16192664675087" /><path d="M 14.007167355692545 101.11028546245083 a86.0,86.0 0 0,1 10.666146001902534,-42.60595125391555" fill="none" id="id22" stroke="none" /><text fill="#e1ed5e" style="font-size:6.75px; font-family:Arial;" text-anchor="middle"><textPath startOffset="22.20632615414155" xlink:href="#id22">October</textPath></text><line stroke="#e1ed5e" stroke-width="0.3" x1="26.266209847984243" x2="21.928928074336255" y1="57.711370442889674" y2="55.22380399835377" /><path d="M 25.398753493254645 57.213857153982495 a86.0,86.0 0 0,1 29.58750427330803,-30.492523968695096" fill="none" id="id23" stroke="none" /><text fill="#e1ed5e" style="font-size:6.75px; font-family:Arial;" text-anchor="middle"><textPath startOffset="21.46611528233685" xlink:href="#id23">November</textPath></text><line stroke="#e1ed5e" stroke-width="0.3" x1="56.762969772571076" x2="54.21961505331055" y1="26.818313649435495" y2="22.513508569990535" /><path d="M 56.25429882871897 25.957352633546506 a86.0,86.0 0 0,1 42.265352541879196,-11.944610805530505" fill="none" id="id24" stroke="none" /><text fill="#e1ed5e" style="font-size:6.75px; font-family:Arial;" text-anchor="middle"><textPath startOffset="22.20632615414155" xlink:href="#id24">December</textPath></text></svg>