<?xml version="1.0" encoding="utf-8" ?>
<svg baseProfile="full" height="200mm" version="1.1" viewBox="0,0,200,200" width="200mm" xmlns="http://www.w3.org/2000/svg" xmlns:ev="http://www.w3.org/2001/xml-events" xmlns:xlink="http://www.w3.org/1999/xlink"><defs /><rect fill="#1a1a1a" height="200" width="200" x="0" y="0" /><text alignment-baseline="middle" fill="#e1ed5e" style="dominant-baseline: central; font-size:9.0px; font-family:Arial;" text-anchor="middle" x="100.0" y="100.0">2021</text><line stroke="#e1ed5e" stroke-width="0.3" x1="100.0" x2="100.0" y1="15.0" y2="10.0" /><path d="M 100.0 14.0 a86.0,86.0 0 0,1 42.46469731375804,11.215312516191453" fill="none" id="id37" stroke="none" /><text fill="#e1ed5e" style="font-size:6.75px; font-family:Arial;" text-anchor="middle"><textPath startOffset="22.20632615414155" xlink:href="#id37">January</textPath></text><path d="M 101.44485096284872 79.0497635885617 l 4.139919555381378 -60.028539717738134 a81.17112691789222,81.17112691789222 0 0,0 1.3930890705582337,0.10813052349499547 l -5.172598815301953 59.948383932054675" fill="#44ffe5" stroke="none" /><path d="M 101.80526077348638 79.07773832637324 l 5.180174476807574 -60.0361828665351 a81.25925207629291,81.25925207629291 0 0,0 1.3925315720808438,0.13223765203862783 l -6.212831175978661 59.9381196699813" fill="#44ffe7" stroke="none" /><path d="M 106.0581310904928 79.89281104454417 l 17.42238684772456 -57.82562628134715 a81.39323321616249,81.39323321616249 0 0,0 1.338006412789863,0.4157251055352921 l -18.41517863322514 57.51716104092934" fill="#44ffeb" stroke="none" /><path d="M 106.40334571778207 80.00007090966166 l 18.23631474810328 -56.958505429172256 a80.80664274407096,80.80664274407096 0 0,0 1.3210623109980797,0.435533473681705 l -19.21405988134378 56.63615823123132" fill="#43ffdb" stroke="none" /><path d="M 107.08798089147638 80.2323363322302 l 21.26394267442914 -59.302991003309366 a84.0,84.0 0 0,0 1.3568706969096942,0.49974692877470117 l -22.28159569711141 58.92818080672834" fill="#4dd2ff" stroke="none" /><path d="M 107.4271985657038 80.35727306442388 l 21.594669856173322 -57.11146665816037 a82.05775454472007,82.05775454472007 0 0,0 1.3168973678045595,0.5109357194800377 l -22.57455038897755 56.73128823478979" fill="#47fffc" stroke="none" /><path d="M 108.09893153111575 80.62456947434976 l 23.37178342878475 -55.91334663655037 a81.60150652204165,81.60150652204165 0 0,0 1.2913098098120934,0.5528714698525471 l -24.330776996387158 55.50275563873503" fill="#45fff0" stroke="none" /><path d="M 108.43124777332544 80.76684994638697 l 24.15147659002419 -55.093740067971815 a81.15491680781987,81.15491680781987 0 0,0 1.2745877494076114,0.5718703698180756 l -25.09624645789858 54.66984936763721" fill="#44ffe4" stroke="none" /><path d="M 109.08828744355905 81.06846463323043 l 26.336150612418685 -54.86003494496917 a81.85405708121061,81.85405708121061 0 0,0 1.264952068315289,0.6207064862957955 l -27.276573947744406 54.398573298538544" fill="#46fff7" stroke="none" /><path d="M 110.36928655335952 81.73862282372117 l 29.60207535996284 -52.132290931218584 a80.950468082861,80.950468082861 0 0,0 1.2057890916561937,0.6984708701878047 l -30.495061184084364 51.61501590364073" fill="#43ffdf" stroke="none" /><line stroke="#e1ed5e" stroke-width="0.3" x1="143.23703022742887" x2="145.7803849466894" y1="26.81831364943548" y2="22.513508569990506" /><path d="M 143.74570117128098 25.957352633546492 a86.0,86.0 0 0,1 28.547481713284135,27.462654790039103" fill="none" id="id38" stroke="none" /><text fill="#e1ed5e" style="font-size:6.75px; font-family:Arial;" text-anchor="middle"><textPath startOffset="19.985693538727396" xlink:href="#id38">February</textPath></text><path d="M 110.99172775467656 82.1063720568725 l 31.40810145504802 -51.1298036468852 a81.0060468451274,81.0060468451274 0 0,0 1.1818429188277277,0.7400699273474455 l -32.28356352624801 50.58158937821481" fill="#43ffe0" stroke="none" /><path d="M 112.19680574252982 82.90503203632743 l 35.44801736299644 -49.68372326232052 a82.0330590104588,82.0330590104588 0 0,0 1.1424263010207005,0.8300212928033882 l -36.29798898037093 49.066182734700455" fill="#47fffb" stroke="none" /><path d="M 112.48926042617603 83.11751280151076 l 35.384505186142746 -47.831371550063594 a80.49708658101164,80.49708658101164 0 0,0 1.1068496838815034,0.8336562344991192 l -36.202601023782634 47.21519872605863" fill="#41ffd3" stroke="none" /><path d="M 114.94478906791727 85.2469230424477 l 43.07534841893128 -42.522776822733405 a81.52827595536088,81.52827595536088 0 0,0 0.9773133607923277,1.0072073265662533 l -43.80092604342672 41.77500530061703" fill="#45ffee" stroke="none" /><path d="M 115.19652480421416 85.50635884689758 l 43.66303587235257 -41.64349295264032 a81.3377262323246,81.3377262323246 0 0,0 0.9575878038690924,1.021487903288767 l -44.37339099819213 40.8857356324735" fill="#44ffe9" stroke="none" /><path d="M 115.68641384162765 86.03803664274999 l 44.97927499277551 -40.0345799636025 a81.21546953846497,81.21546953846497 0 0,0 0.9204734549285755,1.0522602789090323 l -45.66174031128193 39.25440412849052" fill="#44ffe6" stroke="none" /><path d="M 116.38621287248628 86.86637796730983 l 47.46397338295291 -38.04258442340042 a81.82817602813034,81.82817602813034 0 0,0 0.8714541743395315,1.1066583038542224 l -48.1117816378864 37.21993372559316" fill="#46fff6" stroke="none" /><path d="M 116.60985879189232 87.15038557335679 l 49.019106178551354 -37.92185242661587 a82.97531494079013,82.97531494079013 0 0,0 0.8642237021443994,1.1372170888583493 l -49.66460582091987 37.07245056187649" fill="#4aebff" stroke="none" /><path d="M 117.65298651832404 88.62581576622439 l 52.05241686811562 -33.53844850312872 a82.92157644802904,82.92157644802904 0 0,0 0.7627695355019295,1.2065182256638836 l -52.62201399986351 32.63748262975063" fill="#49ecff" stroke="none" /><line stroke="#e1ed5e" stroke-width="0.3" x1="172.23445277983987" x2="176.4835382374775" y1="55.19839476539836" y2="52.563006222186495" /><path d="M 173.08426987136738 54.67131705675599 a86.0,86.0 0 0,1 12.851231095245387,41.99856678651699" fill="none" id="id39" stroke="none" /><text fill="#e1ed5e" style="font-size:6.75px; font-family:Arial;" text-anchor="middle"><textPath startOffset="22.20632615414155" xlink:href="#id39">March</textPath></text><path d="M 117.84615892207809 88.93136811851018 l 40.63216626105617 -25.20108068379519 a68.81283721656001,68.81283721656001 0 0,0 0.6156592851473047,1.0119819880728023 l -41.0599413444897 24.497930922515305" fill="#deff1b" stroke="none" /><path d="M 118.21658344932153 89.55222093294921 l 52.535461719699654 -30.130726695261238 a81.56265705272975,81.56265705272975 0 0,0 0.6880095929893772,1.223892295754682 l -53.046328953981465 29.22195088957176" fill="#45ffef" stroke="none" /><path d="M 118.56541770881063 90.18545643968196 l 52.906168196602046 -27.96866197783648 a80.84403634513319,80.84403634513319 0 0,0 0.6397864869438972,1.23586385282685 l -53.37976411670606 27.053825402749286" fill="#43ffdc" stroke="none" /><path d="M 118.73160827565052 90.50648371742162 l 37.06046484622852 -18.782910750645403 a62.54847519326372,62.54847519326372 0 0,0 0.4784660116585694,0.9645582831118928 l -37.3782908708405 18.14219287903456" fill="#ff4b07" stroke="none" /><path d="M 119.04729006885535 91.15688171328212 l 54.87111884042496 -25.47510919801895 a81.49645337911164,81.49645337911164 0 0,0 0.579780062406852,1.2774685147539264 l -55.301501219795156 24.52681867442296" fill="#45ffed" stroke="none" /><path d="M 119.34039704204932 91.81776055985345 l 56.25000148802339 -23.79739049218807 a82.07682425961845,82.07682425961845 0 0,0 0.5392772265276278,1.3059025791225602 l -56.65130040143722 22.825613342612208" fill="#47fffc" stroke="none" /><path d="M 119.61058180528143 92.48833698450437 l 56.06238056084074 -21.4742078945406 a81.03442444836531,81.03442444836531 0 0,0 0.48773235350881394,1.3068802221336127 l -56.423717502851176 20.506004535377656" fill="#43ffe1" stroke="none" /><path d="M 119.97218684219823 93.5106431181261 l 57.432244516458276 -18.660867442261626 a81.38783556227125,81.38783556227125 0 0,0 0.42145146692247487,1.3361163221431895 l -57.74495146714896 17.66950095369202" fill="#44ffeb" stroke="none" /><path d="M 120.18372546131832 94.20196356495316 l 57.82164136567295 -16.610015034879808 a81.16007654316469,81.16007654316469 0 0,0 0.3741604338678541,1.3460541558874728 l -58.09898857010717 15.612249575573383" fill="#44ffe5" stroke="none" /><path d="M 120.53481517161879 95.60439243477599 l 58.508343023313124 -12.524082299871178 a80.83376004220042,80.83376004220042 0 0,0 0.27953355086203735,1.3631048683232594 l -58.715255870090154 11.515101775384506" fill="#43ffdc" stroke="none" /><path d="M 120.73433829027371 96.67025291283417 l 59.560355205889714 -9.564854034932187 a81.32348087570305,81.32348087570305 0 0,0 0.21006283630993783,1.3840516308734192 l -59.71617393563895 8.538203291666685" fill="#44ffe9" stroke="none" /><path d="M 120.78858239683441 97.02765380044208 l 59.28368490950211 -8.476366121211806 a80.88659348359994,80.88659348359994 0 0,0 0.18520719225113524,1.380008705621224 l -59.42080810081107 7.454639073525917" fill="#43ffdd" stroke="none" /><path d="M 120.87857604477298 97.74499172005257 l 60.18362761670255 -6.500183647673308 a81.53363875201458,81.53363875201458 0 0,0 0.13869599665756127,1.3966497585621316 l -60.28660073904234 5.463258358406741" fill="#45ffee" stroke="none" /><line stroke="#e1ed5e" stroke-width="0.3" x1="184.98032266829074" x2="189.97916517819016" y1="98.17113171792111" y2="98.06355123074" /><path d="M 185.9800911702706 98.14961562048488 a86.0,86.0 0 0,1 -9.607161424134198,41.387399972396054" fill="none" id="id40" stroke="none" /><text fill="#e1ed5e" style="font-size:6.75px; font-family:Arial;" text-anchor="middle"><textPath startOffset="21.466115282336823" xlink:href="#id40">April</textPath></text><path d="M 120.99513854157772 99.54816195383933 l 59.9930091932483 -1.2911143217033167 a81.00690067194674,81.00690067194674 0 0,0 0.018002791850090415,1.394336068562204 l -60.0063449922161 0.25824199508064993" fill="#43ffe0" stroke="none" /><path d="M 120.99980553446 99.90962569577887 l 59.83010509532966 -0.2574835329115132 a80.83065914301724,80.83065914301724 0 0,0 -0.005988022643811903,1.3914055786071147 l -59.82567277539634 -0.7724315238992862" fill="#43ffdc" stroke="none" /><path d="M 120.95626037817324 101.35467743843564 l 60.19401806208544 3.8911273636600416 a81.31965419843596,81.31965419843596 0 0,0 -0.10232119581660566,1.3960914223490173 l -60.1181203076045 -4.926691922505829" fill="#44ffe9" stroke="none" /><path d="M 120.89721153311464 102.0752229133903 l 60.25980557595975 5.984173012246751 a81.5562093818047,81.5562093818047 0 0,0 -0.15075354030952282,1.3957905535692712 l -60.147869734149175 -7.020559887700814" fill="#45ffef" stroke="none" /><path d="M 120.70491114924044 103.5080841355445 l 59.19372790206795 10.029339236483526 a81.03736393667302,81.03736393667302 0 0,0 -0.2448623354874205,1.3733180150033348 l -59.012319124241344 -11.04677600222008" fill="#43ffe1" stroke="none" /><line stroke="#e1ed5e" stroke-width="0.3" x1="174.80103733775053" x2="179.2010983576182" y1="140.37084112569926" y2="142.7455964860345" /><path d="M 175.68104954172406 140.8457921977663 a86.0,86.0 0 0,1 -30.038265399797805,32.042727171017184" fill="none" id="id41" stroke="none" /><text fill="#e1ed5e" style="font-size:6.75px; font-family:Arial;" text-anchor="middle"><textPath startOffset="22.206326154141568" xlink:href="#id41">May</textPath></text><path d="M 117.94076556474637 110.91462005526583 l 45.50671226634711 27.684909685653384 a74.26645366076937,74.26645366076937 0 0,0 -0.6738278813732014,1.0864250962418698 l -45.023419745305944 -28.464131113260528" fill="#42ff2d" stroke="none" /><path d="M 117.55443506779139 111.5257021239791 l 48.21044130738148 31.653492899579074 a78.67313294590625,78.67313294590625 0 0,0 -0.7530026385588879,1.1256367759058947 l -47.65843556341187 -32.478666589690775" fill="#3bffa0" stroke="none" /><path d="M 116.71984013943494 112.70617746262583 l 46.653111195941506 35.45385034161471 a79.59597501796942,79.59597501796942 0 0,0 -0.8383850976597985,1.0837257541737737 l -46.03591928106364 -36.25165408990174" fill="#3fffba" stroke="none" /><line stroke="#e1ed5e" stroke-width="0.3" x1="143.8653032363475" x2="146.44561519142675" y1="172.8068346515853" y2="177.08958963109032" /><path d="M 144.38136562736335 173.6633856474863 a86.0,86.0 0 0,1 -40.68145358897372,12.25698825130547" fill="none" id="id42" stroke="none" /><text fill="#e1ed5e" style="font-size:6.75px; font-family:Arial;" text-anchor="middle"><textPath startOffset="21.466115282336833" xlink:href="#id42">June</textPath></text><path d="M 101.26447882468166 120.96189622390904 l 2.7289458479670494 45.23909657415893 a66.32133056616073,66.32133056616073 0 0,0 -1.1401329358608485,0.05893184972154501 l -1.949824843692721 -45.279368230642675" fill="#ffcf13" stroke="none" /><line stroke="#e1ed5e" stroke-width="0.3" x1="102.19456741930631" x2="102.32365962044197" y1="184.97166512339345" y2="189.96999836594603" /><path d="M 102.22038585953345 185.97133177190398 a86.0,86.0 0 0,1 -42.740103519485714,-10.115201625700543" fill="none" id="id43" stroke="none" /><text fill="#e1ed5e" style="font-size:6.75px; font-family:Arial;" text-anchor="middle"><textPath startOffset="22.20632615414155" xlink:href="#id43">July</textPath></text><path d="M 100.18074693466247 120.99922214144158 l 0.3952125883917406 45.915893136614486 a66.9175939648739,66.9175939648739 0 0,0 -1.1519190461083606,0.0 l 0.395212588391709 -45.915893136614486" fill="#ffe315" stroke="none" /><path d="M 99.45781275523022 120.99299961872073 l -1.2001640056829659 46.46926455159047 a67.48476031568023,67.48476031568023 0 0,0 -1.1609938321033315,-0.03998697503689314 l 1.9998781894609403 -46.44172077812749" fill="#fff617" stroke="none" /><path d="M 99.09653310690486 120.98055641714683 l -2.016401788120588 46.82543632602695 a67.86883146926047,67.86883146926047 0 0,0 -1.1667360925351005,-0.0603069290495216 l 2.8221259490691777 -46.78378959021523" fill="#fcff18" stroke="none" /><path d="M 98.01472825383883 120.90594882070398 l -4.396105362696491 46.29328649877122 a67.5015496216765,67.5015496216765 0 0,0 -1.1557789010745196,-0.11980120879117563 l 5.192316860376604 -46.21075592152428" fill="#fff617" stroke="none" /><path d="M 96.58105272829116 120.7198165907248 l -7.478685908612222 45.323015551694446 a66.9358953501378,66.9358953501378 0 0,0 -1.135204189256705,-0.19736979943093835 l 8.257739069340978 -45.1875671737425" fill="#ffe415" stroke="none" /><path d="M 95.86986931433489 120.58985236759428 l -8.922378551887169 44.48054338541163 a66.36659099915556,66.36659099915556 0 0,0 -1.118146027205945,-0.23431837153119756 l 9.686716040522501 -44.320369033153895" fill="#ffd113" stroke="none" /><path d="M 95.16358092515715 120.4354850818985 l -10.708782025566627 45.248178857594205 a67.49812579448697,67.49812579448697 0 0,0 -1.1283331117211535,-0.27731682665284063 l 11.486068422030991 -45.057140772627335" fill="#fff617" stroke="none" /><path d="M 93.08242187328487 119.8279376855182 l -15.09570760323997 43.26900892089795 a66.82671187243596,66.82671187243596 0 0,0 -1.0828487084582463,-0.3882710209414361 l 15.838275872327944 -43.00275035891656" fill="#ffe015" stroke="none" /><path d="M 92.7421414339146 119.70592522655815 l -16.029434996824484 43.52176948548173 a67.37981463379117,67.37981463379117 0 0,0 -1.0849105641588983,-0.41022034325813733 l 16.776215781743666 -43.239400892116954" fill="#fff216" stroke="none" /><path d="M 91.40352486487194 119.15986991738527 l -18.93243931562241 42.19672235470412 a67.24933119429633,67.24933119429633 0 0,0 -1.0520741695506082,-0.48295565026123577 l 19.655981480940437 -41.864579634108814" fill="#ffee16" stroke="none" /><line stroke="#e1ed5e" stroke-width="0.3" x1="58.666819895761336" x2="56.23545636021788" y1="174.27360380694188" y2="178.64263932499728" /><path d="M 58.180547188652646 175.14741091055294 a86.0,86.0 0 0,1 -31.652253787137756,-30.449443065178592" fill="none" id="id44" stroke="none" /><text fill="#e1ed5e" style="font-size:6.75px; font-family:Arial;" text-anchor="middle"><textPath startOffset="22.20632615414155" xlink:href="#id44">August</textPath></text><line stroke="#e1ed5e" stroke-width="0.3" x1="26.63291911575756" x2="22.317208475507996" y1="142.92168965132927" y2="145.44649492493687" /><path d="M 25.769776987707644 143.4266507060508 a86.0,86.0 0 0,1 -11.730757126820373,-40.83630448921669" fill="none" id="id45" stroke="none" /><text fill="#e1ed5e" style="font-size:6.75px; font-family:Arial;" text-anchor="middle"><textPath startOffset="21.46611528233685" xlink:href="#id45">September</textPath></text><path d="M 81.02952815118164 109.00673069616217 l -41.44293728606133 19.676124999323203 a66.8766492443095,66.8766492443095 0 0,0 -0.48477731217540615,-1.0441672026115085 l 41.77548921507656 -18.959837729432866" fill="#ffe215" stroke="none" /><path d="M 80.58989483394504 108.01547362559985 l -42.23078398611113 17.43935606392581 a66.68993604729565,66.68993604729565 0 0,0 -0.42903028644436375,-1.0648179864371958 l 42.52471688681288 -16.70983870964581" fill="#ffdc14" stroke="none" /><path d="M 80.20201598880116 107.00284435728193 l -43.571838418642706 15.412013800687758 a67.21726162996785,67.21726162996785 0 0,0 -0.376446013646292,-1.094128326129116 l 43.83067526323222 -14.659712771469346" fill="#ffed16" stroke="none" /><path d="M 79.97269907076064 106.31721596034903 l -43.94992382998609 13.863134191465766 a67.08451252071748,67.08451252071748 0 0,0 -0.33789263829377125,-1.1042526922812603 l 44.182043240785994 -13.104554526632459" fill="#ffe915" stroke="none" /><path d="M 79.67330655649465 105.27499134158121 l -44.254431029935695 11.484491619767182 a66.7203260437613,66.7203260437613 0 0,0 -0.2789185587231896,-1.1141409947560115 l 44.44556090295394 -10.721022785613778" fill="#ffdd14" stroke="none" /><path d="M 79.4281124754447 104.21870165774334 l -44.67007806051123 9.160546505052746 a66.59968734764966,66.59968734764966 0 0,0 -0.2206354625036022,-1.1250154699116537 l 44.8211434559905 -8.390267308073138" fill="#ffd914" stroke="none" /><path d="M 79.10278846688536 102.07522291339032 l -46.44207188320756 4.611986224316489 a67.67050950802127,67.67050950802127 0 0,0 -0.10513227108739075,-1.1601258509185175 l 46.51457875057203 -3.8118789848494052" fill="#fffc17" stroke="none" /><line stroke="#e1ed5e" stroke-width="0.3" x1="15.007084014347285" x2="10.007500721073583" y1="101.09737516637583" y2="101.16192664675087" /><path d="M 14.007167355692545 101.11028546245083 a86.0,86.0 0 0,1 10.666146001902534,-42.60595125391555" fill="none" id="id46" stroke="none" /><text fill="#e1ed5e" style="font-size:6.75px; font-family:Arial;" text-anchor="middle"><textPath startOffset="22.20632615414155" xlink:href="#id46">October</textPath></text><path d="M 79.26566170972629 96.67025291283419 l -45.03016650251888 -7.231437224919241 a66.6071220269655,66.6071220269655 0 0,0 0.1915371480335141,-1.1304630899901122 l 44.89901749296514 8.005486103225183" fill="#ffd914" stroke="none" /><path d="M 80.02781315780177 93.51064311812611 l -43.7212254094872 -14.205887278980994 a66.97121691548205,66.97121691548205 0 0,0 0.3656714748060393,-1.0933111661262285 l 43.470216640909385 14.956371548029544" fill="#ffe515" stroke="none" /><path d="M 80.2630227832202 92.82701384747504 l -43.28095101401857 -15.729544543818369 a67.05061663250386,67.05061663250386 0 0,0 0.40356620383261615,-1.0813567857783177 l 43.00378022168433 16.472224466626027" fill="#ffe815" stroke="none" /><path d="M 80.95270993114464 91.15688171328213 l -42.922293623778366 -19.927607459128613 a68.3226460478592,68.3226460478592 0 0,0 0.5044222116557527,-1.0624418214493256 l 42.57291321828087 20.663491696218472" fill="#edff19" stroke="none" /><path d="M 81.26839172434947 90.50648371742162 l -35.29518659332037 -17.888235953337666 a60.569422312937355,60.569422312937355 0 0,0 0.47933650606435696,-0.9259255599707796 l 34.982040654095904 18.49313423556878" fill="#ff0000" stroke="none" /><line stroke="#e1ed5e" stroke-width="0.3" x1="26.266209847984243" x2="21.928928074336255" y1="57.711370442889674" y2="55.22380399835377" /><path d="M 25.398753493254645 57.213857153982495 a86.0,86.0 0 0,1 29.58750427330803,-30.492523968695096" fill="none" id="id47" stroke="none" /><text fill="#e1ed5e" style="font-size:6.75px; font-family:Arial;" text-anchor="middle"><textPath startOffset="21.46611528233685" xlink:href="#id47">November</textPath></text><path d="M 83.6137871275137 86.86637796730984 l -36.112829522989266 -28.944592455666704 a67.28094519973769,67.28094519973769 0 0,0 0.7320855920316981,-0.897450373056078 l 35.609245438881175 29.561926998330865" fill="#ffef16" stroke="none" /><path d="M 84.80347519578584 85.50635884689758 l -33.29217691255389 -31.752316506096697 a67.00628921223844,67.00628921223844 0 0,0 0.8032322643506972,-0.8278014545227691 l 32.740680384500074 32.32068215616959" fill="#ffe615" stroke="none" /><path d="M 85.57189188830299 84.74124197986013 l -31.80556162115983 -33.63666010226778 a67.29274946331108,67.29274946331108 0 0,0 0.8485042636025095,-0.7885922396832659 l 31.22184947376246 34.1791569280257" fill="#ffef16" stroke="none" /><path d="M 86.93701828274178 83.55741782278169 l -28.432207290910455 -35.788070057761935 a66.707508900536,66.707508900536 0 0,0 0.9052127791936007,-0.7065329324077851 l 27.811961956557425 36.27218137939294" fill="#ffdc14" stroke="none" /><path d="M 87.51073957382395 83.11751280151077 l -28.154251586645383 -38.05780132491939 a68.33981542096632,68.33981542096632 0 0,0 0.9517285285418883,-0.6914712511016479 l 27.494977741749715 38.536791810837705" fill="#edff1a" stroke="none" /><path d="M 88.09926311788651 82.69761687909137 l -29.544016965296642 -42.95380240130176 a73.13327228532478,73.13327228532478 0 0,0 1.0433516694938871,-0.704475704663779 l 28.800260601396214 43.4559900182642" fill="#60ff29" stroke="none" /><path d="M 88.70189139769569 82.29822771554957 l -27.651030902630044 -43.32338001856595 a72.39547418023577,72.39547418023577 0 0,0 1.056218416369242,-0.6614038754327586 l 26.90119333388856 43.79292823532164" fill="#74ff27" stroke="none" /><line stroke="#e1ed5e" stroke-width="0.3" x1="56.762969772571076" x2="54.21961505331055" y1="26.818313649435495" y2="22.513508569990535" /><path d="M 56.25429882871897 25.957352633546506 a86.0,86.0 0 0,1 42.265352541879196,-11.944610805530505" fill="none" id="id48" stroke="none" /><text fill="#e1ed5e" style="font-size:6.75px; font-family:Arial;" text-anchor="middle"><textPath startOffset="22.20632615414155" xlink:href="#id48">December</textPath></text><path d="M 89.94658935756843 81.56283822128135 l -24.798131592145936 -45.47781645809365 a72.79941235436402,72.79941235436402 0 0,0 1.1053549161436884,-0.5904423153390264 l 24.011631629473943 45.89793749993443" fill="#69ff28" stroke="none" /><path d="M 90.91171255644093 81.06846463323043 l -22.22489590485911 -46.29600521094893 a72.35431916084599,72.35431916084599 0 0,0 1.1274242731433828,-0.5293408133498574 l 21.42469342041612 46.67171100693879" fill="#75ff27" stroke="none" /><path d="M 91.56875222667455 80.76684994638697 l -19.17932703942476 -43.75139775201755 a68.77061221023294,68.77061221023294 0 0,0 1.0882662582935503,-0.46593881750286303 l 18.4233770233409 44.075056097483206" fill="#dfff1b" stroke="none" /><path d="M 92.23578459929587 80.48803036053334 l -16.82701910278314 -42.287374694222684 a66.51231295391406,66.51231295391406 0 0,0 1.0674175809656736,-0.41414143808758336 l 16.096618356817793 42.57075883620082" fill="#ffd614" stroke="none" /></svg>