<?xml version="1.0" encoding="utf-8" ?>
<svg baseProfile="full" height="200mm" version="1.1" viewBox="0,0,200,200" width="200mm" xmlns="http://www.w3.org/2000/svg" xmlns:ev="http://www.w3.org/2001/xml-events" xmlns:xlink="http://www.w3.org/1999/xlink"><defs /><rect fill="#1a1a1a" height="200" width="200" x="0" y="0" /><text alignment-baseline="middle" fill="#e1ed5e" style="dominant-baseline: central; font-size:9.0px; font-family:Arial;" text-anchor="middle" x="100.0" y="100.0">2020</text><line stroke="#e1ed5e" stroke-width="0.3" x1="100.0" x2="100.0" y1="15.0" y2="10.0" /><path d="M 100.0 14.0 a86.0,86.0 0 0,1 42.35913384403234,11.155469271406648" fill="none" id="id25" stroke="none" /><text fill="#e1ed5e" style="font-size:6.75px; font-family:Arial;" text-anchor="middle"><textPath startOffset="22.145653131862478" xlink:href="#id25">January</textPath></text><line stroke="#e1ed5e" stroke-width="0.3" x1="143.13028292997686" x2="145.6673583964461" y1="26.7553504044142" y2="22.446841604673864" /><path d="M 143.63769802327073 25.89364864446614 a86.0,86.0 0 0,1 29.32050498858742,28.57503671076993" fill="none" id="id26" stroke="none" /><text fill="#e1ed5e" style="font-size:6.75px; font-family:Arial;" text-anchor="middle"><textPath startOffset="20.669276256404974" xlink:href="#id26">February</textPath></text><line stroke="#e1ed5e" stroke-width="0.3" x1="172.87174338648825" x2="177.1583165268699" y1="56.24261187166439" y2="53.66864786411523" /><path d="M 173.72905801456457 55.72781907015455 a86.0,86.0 0 0,1 12.242430191666344,42.057860355516425" fill="none" id="id27" stroke="none" /><text fill="#e1ed5e" style="font-size:6.75px; font-family:Arial;" text-anchor="middle"><textPath startOffset="22.145653131862474" xlink:href="#id27">March</textPath></text><line stroke="#e1ed5e" stroke-width="0.3" x1="184.99686870605535" x2="189.99668451229388" y1="99.2704041080226" y2="99.22748670261217" /><path d="M 185.99683186730306 99.26182062694052 a86.0,86.0 0 0,1 -10.086455211305974,41.156179273409016" fill="none" id="id28" stroke="none" /><text fill="#e1ed5e" style="font-size:6.75px; font-family:Arial;" text-anchor="middle"><textPath startOffset="21.40746469413373" xlink:href="#id28">April</textPath></text><line stroke="#e1ed5e" stroke-width="0.3" x1="174.33088141563837" x2="178.70328620479359" y1="141.23008692659167" y2="143.65538615756765" /><path d="M 175.20536237346943 141.71514677278685 a86.0,86.0 0 0,1 -30.301960400862466,31.631185727798858" fill="none" id="id29" stroke="none" /><text fill="#e1ed5e" style="font-size:6.75px; font-family:Arial;" text-anchor="middle"><textPath startOffset="22.145653131862474" xlink:href="#id29">May</textPath></text><line stroke="#e1ed5e" stroke-width="0.3" x1="143.1302829299769" x2="145.66735839644613" y1="173.24464959558577" y2="177.55315839532614" /><path d="M 143.63769802327073 174.10635135553383 a86.0,86.0 0 0,1 -40.68552437913181,11.842963189579606" fill="none" id="id30" stroke="none" /><text fill="#e1ed5e" style="font-size:6.75px; font-family:Arial;" text-anchor="middle"><textPath startOffset="21.407464694133747" xlink:href="#id30">June</textPath></text><line stroke="#e1ed5e" stroke-width="0.3" x1="101.45913802915013" x2="101.54496967792366" y1="184.9874750549273" y2="189.98673829345242" /><path d="M 101.47630435890484 185.9873277026323 a86.0,86.0 0 0,1 -42.54439059252881,-10.42667462771756" fill="none" id="id31" stroke="none" /><text fill="#e1ed5e" style="font-size:6.75px; font-family:Arial;" text-anchor="middle"><textPath startOffset="22.145653131862474" xlink:href="#id31">July</textPath></text><line stroke="#e1ed5e" stroke-width="0.3" x1="58.13341422392154" x2="55.67067388415222" y1="173.97424548756322" y2="178.32567169271397" /><path d="M 57.64086615596768 174.84453072859336 a86.0,86.0 0 0,1 -31.369924170532247,-30.572349798747897" fill="none" id="id32" stroke="none" /><text fill="#e1ed5e" style="font-size:6.75px; font-family:Arial;" text-anchor="middle"><textPath startOffset="22.145653131862474" xlink:href="#id32">August</textPath></text><line stroke="#e1ed5e" stroke-width="0.3" x1="26.387840678322732" x2="22.057713659400548" y1="142.50000000000003" y2="145.00000000000006" /><path d="M 25.521815274538298 143.00000000000003 a86.0,86.0 0 0,1 -11.493303480769221,-40.785679425670985" fill="none" id="id33" stroke="none" /><text fill="#e1ed5e" style="font-size:6.75px; font-family:Arial;" text-anchor="middle"><textPath startOffset="21.40746469413373" xlink:href="#id33">September</textPath></text><path d="M 80.83023694016515 108.57439118712176 l -37.606424670512006 16.820875420709285 a62.196905544202174,62.196905544202174 0 0,0 -0.42757741923684706,-0.9783808116104165 l 37.88963597176582 -16.172832539323018" fill="#ff710a" stroke="none" /><path d="M 80.28708602549918 107.23885506374661 l -39.36032043818724 14.453654862148591 a62.930215404537236,62.930215404537236 0 0,0 -0.36367620193298394,-1.0172670627266305 l 39.60263681016417 -13.775852843041038" fill="#ff8a0c" stroke="none" /><path d="M 80.05021161711548 106.5578916946017 l -40.26027397394614 13.234351725888096 a63.37968529922942,63.37968529922942 0 0,0 -0.3308880862728172,-1.036502217459517 l 40.481526775996215 -12.541280474737187" fill="#ff990e" stroke="none" /><path d="M 79.94057633289273 106.21446072829308 l -38.68579977910313 11.984959660833313 a61.49975756249236,61.49975756249236 0 0,0 -0.30376100825077684,-1.0111216035531256 l 38.88583710735754 -11.319100453689463" fill="#ff5a08" stroke="none" /><path d="M 79.2786578344484 103.40968896794605 l -41.11768733595518 6.765899804016345 a62.67063248878468,62.67063248878468 0 0,0 -0.16556538939184703,-1.063048568492187 l 41.2277742174853 -6.059063053592708" fill="#ff810b" stroke="none" /><path d="M 79.22317932658666 103.0534771498775 l -39.94015996797126 5.869828100346041 a61.36918701429032,61.36918701429032 0 0,0 -0.14423361398589865,-1.04360258090755 l 40.03503809851237 -5.183337211238405" fill="#ff5507" stroke="none" /><path d="M 79.13060592940153 102.33845913500099 l -41.52893559976297 4.6534038550237735 a62.78883414845657,62.78883414845657 0 0,0 -0.11083008860708339,-1.072180570322075 l 41.60269808085172 -3.939818762418767" fill="#ff850c" stroke="none" /><path d="M 79.06263194458094 101.62068470465958 l -40.93591224691887 3.168698504714713 a62.058367742778366,62.058367742778366 0 0,0 -0.07309896164371314,-1.0628428592827723 l 40.984275169727646 -2.4655122212775975" fill="#ff6d0a" stroke="none" /><path d="M 79.03789590574601 101.26102812881392 l -40.96374440096537 2.464277141211255 a62.03779985789099,62.03779985789099 0 0,0 -0.05482490280827231,-1.0635884678899903 l 41.00001089323021 -1.7607168799445339" fill="#ff6c0a" stroke="none" /><path d="M 79.01933749520258 100.90099992219065 l -40.517137286395105 1.7399802095897792 a61.5544811952311,61.5544811952311 0 0,0 -0.03627409388274336,-1.056080664887974 l 40.541036067274696 -1.0441932801376854" fill="#ff5c08" stroke="none" /><line stroke="#e1ed5e" stroke-width="0.3" x1="15.003131293944662" x2="10.003315487706104" y1="100.72959589197737" y2="100.7725132973878" /><path d="M 14.003168132696942 100.73817937305945 a86.0,86.0 0 0,1 10.791469493833604,-42.45332614584628" fill="none" id="id34" stroke="none" /><text fill="#e1ed5e" style="font-size:6.75px; font-family:Arial;" text-anchor="middle"><textPath startOffset="22.145653131862435" xlink:href="#id34">October</textPath></text><path d="M 79.01933749520258 99.09900007780938 l -51.90504166762875 -2.2290258228566877 a72.95288160090101,72.95288160090101 0 0,0 0.06447092986074937,-1.2507188157511169 l 51.85912914831143 3.119716431984517" fill="#52ff2b" stroke="none" /><path d="M 79.03789590574601 98.7389718711861 l -37.87805462076194 -2.2786497064778755 a58.94653167732535,58.94653167732535 0 0,0 0.06943350936929141,-1.0095479876688311 l 37.833357150227584 2.9285411183010313" fill="#ff0000" stroke="none" /><path d="M 79.0935383218832 98.0201363427161 l -48.2262168978715 -4.567072880837072 a69.44198747965885,69.44198747965885 0 0,0 0.12257373034234358,-1.1857896511377264 l 48.1407107750475 5.394267054257711" fill="#aeff20" stroke="none" /><path d="M 79.13060592940154 97.66154086499901 l -47.27343477088877 -5.2970869690270925 a68.56928384362027,68.56928384362027 0 0,0 0.14111530449475712,-1.1686371550696837 l 47.175537380134344 6.107817801020213" fill="#c7ff1e" stroke="none" /><path d="M 79.22317932658666 96.9465228501225 l -47.13129865695514 -6.926677847165584 a68.63757108721556,68.63757108721556 0 0,0 0.18132904891296714,-1.164262570704114 l 47.00544811590391 7.734728599801148" fill="#c5ff1e" stroke="none" /><path d="M 79.34024301695615 96.23510406497455 l -47.517757676121214 -8.659318348380465 a69.30032182941616,69.30032182941616 0 0,0 0.22332427258267662,-1.1685269620077172 l 47.36210711125638 9.473747875421497" fill="#b2ff20" stroke="none" /><path d="M 79.64726062577567 94.8264132398404 l -46.00221944923655 -11.693584293716084 a68.46518837937927,68.46518837937927 0 0,0 0.29932497580538464,-1.1365856876591187 l 45.79470499262644 12.481550485747986" fill="#caff1d" stroke="none" /><path d="M 79.94057633289273 93.78553927170692 l -46.58702972270195 -14.432780894611998 a69.77147222235342,69.77147222235342 0 0,0 0.36425786608271066,-1.1410325774331933 l 46.33240714084198 15.230382505736584" fill="#a5ff21" stroke="none" /><path d="M 80.16572619554312 93.10060997987247 l -45.10828799758197 -15.691004122652682 a68.75945201161652,68.75945201161652 0 0,0 0.39736359066673455,-1.1114966845879686 l 44.83228423687129 16.463035763621573" fill="#c1ff1e" stroke="none" /><path d="M 80.28708602549916 92.7611449362534 l -46.45340709818944 -17.058334533188965 a70.48642044113015,70.48642044113015 0 0,0 0.42684332799365166,-1.132252639541191 l 46.15373308638135 17.8532554529243" fill="#92ff23" stroke="none" /><path d="M 80.83023694016515 91.42560881287825 l -44.13500273295761 -19.741025347880637 a69.34880089540837,69.34880089540837 0 0,0 0.4953998799040714,-1.0825381430340917 l 43.78961838819849 20.4957524731294" fill="#b1ff20" stroke="none" /><path d="M 80.9802524753101 91.09779779509293 l -43.19943302734793 -20.21951592404548 a68.69716803005235,68.69716803005235 0 0,0 0.5090811554709448,-1.0637838184241433 l 42.845972613917084 20.958112244534714" fill="#c3ff1e" stroke="none" /><path d="M 81.46374523516351 90.13048839642627 l -43.64765985916808 -23.239920410788468 a70.44908605708922,70.44908605708922 0 0,0 0.5775303704798225,-1.062590833081599 l 43.24228413907291 23.98576607734469" fill="#93ff23" stroke="none" /><line stroke="#e1ed5e" stroke-width="0.3" x1="26.387840678322718" x2="22.05771365940052" y1="57.49999999999999" y2="54.99999999999999" /><path d="M 25.521815274538284 56.99999999999999 a86.0,86.0 0 0,1 29.574782752854787,-30.34633250058573" fill="none" id="id35" stroke="none" /><text fill="#e1ed5e" style="font-size:6.75px; font-family:Arial;" text-anchor="middle"><textPath startOffset="21.40746469413373" xlink:href="#id35">November</textPath></text><path d="M 81.81346652052679 89.5 l -54.55960043841963 -31.500000000000007 a84.0,84.0 0 0,0 0.7317051594808825,-1.2425953268257088 l 54.01082156880897 32.43194649511929" fill="#4dd2ff" stroke="none" /><path d="M 82.18462484594161 88.88188828441811 l -52.90953912681719 -33.01946558772851 a83.36749504598839,83.36749504598839 0 0,0 0.7681016849935723,-1.2075834271087251 l 52.33491975019772 33.92286268951591" fill="#4be0ff" stroke="none" /><path d="M 82.37810715431573 88.57770195909679 l -52.28739044914549 -33.89205477080658 a83.31085440409836,83.31085440409836 0 0,0 0.7881824163203665,-1.1934086360722687 l 51.69788359390439 34.78464328521791" fill="#4be2ff" stroke="none" /><path d="M 82.98947788004972 87.6856937992154 l -49.93657891370193 -36.150232134365915 a82.64820513991403,82.64820513991403 0 0,0 0.8418230554499934,-1.1420946515169406 l 49.30865383866812 37.00213309515172" fill="#49f1ff" stroke="none" /><path d="M 83.2033758604659 87.39550010848427 l -48.94051405011232 -36.72587413463879 a82.1879379162476,82.1879379162476 0 0,0 0.8565079856332279,-1.121196447469596 l 48.302854087124786 37.560591495349264" fill="#47fcff" stroke="none" /><path d="M 83.64595745247003 86.82634096563983 l -48.57576739800678 -39.129199717679604 a83.37547153209599,83.37547153209599 0 0,0 0.9074156769590286,-1.1068995821647916 l 47.89690490180912 39.95730158154289" fill="#4be0ff" stroke="none" /><path d="M 84.34580500576568 86.00192230759919 l -45.224275193751744 -40.43982574497222 a81.66806880957978,81.66806880957978 0 0,0 0.9434695838575599,-1.0370383442041227 l 44.52340790905232 41.210201664734" fill="#46fff6" stroke="none" /><path d="M 85.60350026404147 84.71141617570332 l -41.91664811356956 -44.5140277200295 a82.1433075073337,82.1433075073337 0 0,0 1.0348892215354066,-0.9578780134541929 l 41.1463291207202 45.227023479616065" fill="#47fdff" stroke="none" /><path d="M 86.13680546590413 84.22622945171909 l -40.44519055037667 -46.01920242510311 a82.26647068747224,82.26647068747224 0 0,0 1.0687610157633591,-0.9231703104248914 l 39.64925005485047 46.70671686799271" fill="#48faff" stroke="none" /><path d="M 86.68645165197937 83.75963576809568 l -38.71883687569277 -47.23068539353191 a82.07279240176672,82.07279240176672 0 0,0 1.0972320591233269,-0.8838524778476051 l 37.9023540462142 47.88838616517291" fill="#47ffff" stroke="none" /><path d="M 87.25179093698888 83.31218511350988 l -37.84990572947756 -49.54674159818273 a83.34977920351787,83.34977920351787 0 0,0 1.1444599861087195,-0.8588241095899022 l 36.99379275445809 50.189184735036626" fill="#4be1ff" stroke="none" /><path d="M 87.83215693770416 82.88440491214696 l -35.62416121081292 -50.109844078941464 a82.48233352427194,82.48233352427194 0 0,0 1.1610563181532132,-0.8105074822487671 l 34.75870980148594 50.713996376995354" fill="#48f5ff" stroke="none" /><path d="M 88.4268655584334 82.4767994020092 l -34.55143337313702 -52.315273878701866 a83.69521057578412,83.69521057578412 0 0,0 1.205666843354686,-0.781498681408957 l 33.64828089752531 52.90068640181473" fill="#4cd9ff" stroke="none" /><path d="M 89.03521579738668 82.08984904055464 l -32.01276937709286 -52.29045292446255 a82.31157207441649,82.31157207441649 0 0,0 1.2114195564030465,-0.7274226367090458 l 31.110417064132374 52.83228956170752" fill="#48f9ff" stroke="none" /><line stroke="#e1ed5e" stroke-width="0.3" x1="56.869717070023135" x2="54.33264160355391" y1="26.7553504044142" y2="22.446841604673864" /><path d="M 56.362301976729285 25.89364864446614 a86.0,86.0 0 0,1 42.16139366436587,-11.88097634709845" fill="none" id="id36" stroke="none" /><text fill="#e1ed5e" style="font-size:6.75px; font-family:Arial;" text-anchor="middle"><textPath startOffset="22.145653131862474" xlink:href="#id36">December</textPath></text><path d="M 89.34428304082924 81.90426304109057 l -30.803150683165878 -52.31048407197927 a81.70601976620291,81.70601976620291 0 0,0 1.2147254662931244,-0.7013220749558253 l 29.900632749012356 52.83155304421127" fill="#46fff7" stroke="none" /><path d="M 90.28995756902619 81.37971332152246 l -28.675541748333398 -54.98913231433422 a83.01686357148165,83.01686357148165 0 0,0 1.2692597634057197,-0.648093079028838 l 27.727354763214098 55.47328334503589" fill="#4ae8ff" stroke="none" /><path d="M 91.26138138417902 80.90454125486306 l -25.621509328642468 -55.987621829319195 a82.57171053641902,82.57171053641902 0 0,0 1.2939639638486182,-0.5787736224723267 l 24.65663196193823 56.41919920270137" fill="#49f3ff" stroke="none" /><path d="M 91.92203290615298 80.6158196554323 l -23.712180117323193 -56.900600165501174 a82.64370028730113,82.64370028730113 0 0,0 1.3142140486504044,-0.5344794124979608 l 22.73191160748235 57.299266834578425" fill="#49f1ff" stroke="none" /><path d="M 92.592206182469 80.34994680014964 l -21.790582119221938 -57.80210794813033 a82.77307789273468,82.77307789273468 0 0,0 1.3338717861847318,-0.4898161959364319 l 20.795121181383077 58.16765499307548" fill="#49eeff" stroke="none" /><path d="M 98.1996594967304 79.07731436759882 l -5.391825311884966 -62.661183137587635 a83.89273131607642,83.89273131607642 0 0,0 1.43588803561857,-0.1111468151474875 l 4.315368281491178 62.74450771973017" fill="#4dd4ff" stroke="none" /><path d="M 98.9189461498227 79.02784411241856 l -3.14468559604145 -61.00606045369273 a82.087056399679,82.087056399679 0 0,0 1.4078877668224747,-0.0604607584755802 l 2.096972068618155 61.05105378059414" fill="#47feff" stroke="none" /></svg>